<mxfile host="app.diagrams.net" modified="2021-02-23T12:02:50.829Z" agent="5.0 (Windows NT 10.0; Win64; x64) AppleWebKit/537.36 (KHTML, like Gecko) Chrome/88.0.4324.111 YaBrowser/21.2.1.107 Yowser/2.5 Safari/537.36" etag="gCbNKjZpDRJs_u2FAR1o" version="14.4.2" type="github">
  <diagram id="ckMNo31Ma1tLkW73L81t" name="Page-1">
    <mxGraphModel dx="1038" dy="552" grid="1" gridSize="10" guides="1" tooltips="1" connect="1" arrows="1" fold="1" page="1" pageScale="1" pageWidth="850" pageHeight="1100" math="0" shadow="0">
      <root>
        <mxCell id="0" />
        <mxCell id="1" parent="0" />
        <mxCell id="F92IRK9Jc3nQpXJkIrV8-35" style="edgeStyle=orthogonalEdgeStyle;rounded=0;orthogonalLoop=1;jettySize=auto;html=1;exitX=0.5;exitY=1;exitDx=0;exitDy=0;exitPerimeter=0;entryX=0.5;entryY=0;entryDx=0;entryDy=0;" parent="1" source="F92IRK9Jc3nQpXJkIrV8-1" target="F92IRK9Jc3nQpXJkIrV8-5" edge="1">
          <mxGeometry relative="1" as="geometry" />
        </mxCell>
        <mxCell id="F92IRK9Jc3nQpXJkIrV8-1" value="Start" style="strokeWidth=2;html=1;shape=mxgraph.flowchart.start_1;whiteSpace=wrap;" parent="1" vertex="1">
          <mxGeometry x="95" y="10" width="100" height="40" as="geometry" />
        </mxCell>
        <mxCell id="mxctmNxFB624iaF2kWNX-1" style="edgeStyle=orthogonalEdgeStyle;rounded=0;orthogonalLoop=1;jettySize=auto;html=1;exitX=0.5;exitY=1;exitDx=0;exitDy=0;entryX=0.5;entryY=0;entryDx=0;entryDy=0;" parent="1" source="F92IRK9Jc3nQpXJkIrV8-5" target="F92IRK9Jc3nQpXJkIrV8-6" edge="1">
          <mxGeometry relative="1" as="geometry" />
        </mxCell>
        <mxCell id="F92IRK9Jc3nQpXJkIrV8-5" value="&lt;div&gt;&lt;b&gt;Read data from json (just in debug mode)&lt;br&gt;&lt;/b&gt;&lt;/div&gt;&lt;div&gt;1) ballSpeed, spin, golfInitDistance...&lt;/div&gt;&lt;div&gt;2) Motion sensor (Acc, Lat/Lon, heading, barometer)&lt;br&gt;&lt;/div&gt;" style="rounded=1;whiteSpace=wrap;html=1;align=left;" parent="1" vertex="1">
          <mxGeometry x="40" y="60" width="210" height="80" as="geometry" />
        </mxCell>
        <mxCell id="mxctmNxFB624iaF2kWNX-2" style="edgeStyle=orthogonalEdgeStyle;rounded=0;orthogonalLoop=1;jettySize=auto;html=1;exitX=0.5;exitY=1;exitDx=0;exitDy=0;entryX=0.5;entryY=0;entryDx=0;entryDy=0;" parent="1" source="F92IRK9Jc3nQpXJkIrV8-6" target="F92IRK9Jc3nQpXJkIrV8-8" edge="1">
          <mxGeometry relative="1" as="geometry" />
        </mxCell>
        <mxCell id="F92IRK9Jc3nQpXJkIrV8-6" value="&lt;div&gt;&lt;b&gt;Fill data:&lt;/b&gt;&lt;/div&gt;&lt;div&gt;PhoneAccX&lt;/div&gt;&lt;div&gt;PhoneAccY&lt;/div&gt;&lt;div&gt;PhoneAccZ&lt;/div&gt;&lt;div&gt;Barometer&lt;/div&gt;&lt;div&gt;DeviceModel&lt;/div&gt;&lt;div&gt;kMatrix&lt;/div&gt;&lt;div&gt;InitialBallPoint&lt;/div&gt;&lt;div&gt;TimeStamps&amp;amp;ImageFiles&lt;br&gt;&lt;/div&gt;&lt;div&gt;&lt;br&gt;&lt;/div&gt;" style="rounded=1;whiteSpace=wrap;html=1;align=left;" parent="1" vertex="1">
          <mxGeometry x="40" y="150" width="210" height="170" as="geometry" />
        </mxCell>
        <mxCell id="mxctmNxFB624iaF2kWNX-3" style="edgeStyle=orthogonalEdgeStyle;rounded=0;orthogonalLoop=1;jettySize=auto;html=1;exitX=0.5;exitY=1;exitDx=0;exitDy=0;entryX=0.5;entryY=0;entryDx=0;entryDy=0;" parent="1" source="F92IRK9Jc3nQpXJkIrV8-8" target="F92IRK9Jc3nQpXJkIrV8-9" edge="1">
          <mxGeometry relative="1" as="geometry" />
        </mxCell>
        <mxCell id="F92IRK9Jc3nQpXJkIrV8-8" value="Load input images&amp;amp;TimeStamps" style="rounded=1;whiteSpace=wrap;html=1;align=left;fontStyle=1" parent="1" vertex="1">
          <mxGeometry x="40" y="330" width="210" height="40" as="geometry" />
        </mxCell>
        <mxCell id="mxctmNxFB624iaF2kWNX-4" style="edgeStyle=orthogonalEdgeStyle;rounded=0;orthogonalLoop=1;jettySize=auto;html=1;exitX=0.5;exitY=1;exitDx=0;exitDy=0;entryX=0.5;entryY=0;entryDx=0;entryDy=0;" parent="1" source="F92IRK9Jc3nQpXJkIrV8-9" target="F92IRK9Jc3nQpXJkIrV8-10" edge="1">
          <mxGeometry relative="1" as="geometry" />
        </mxCell>
        <mxCell id="F92IRK9Jc3nQpXJkIrV8-9" value="Calculate InputGravityDirection" style="rounded=1;whiteSpace=wrap;html=1;align=left;fontStyle=1" parent="1" vertex="1">
          <mxGeometry x="37" y="390" width="210" height="40" as="geometry" />
        </mxCell>
        <mxCell id="F92IRK9Jc3nQpXJkIrV8-36" style="edgeStyle=orthogonalEdgeStyle;rounded=0;orthogonalLoop=1;jettySize=auto;html=1;exitX=1;exitY=0.5;exitDx=0;exitDy=0;entryX=0.5;entryY=0;entryDx=0;entryDy=0;" parent="1" source="F92IRK9Jc3nQpXJkIrV8-10" target="F92IRK9Jc3nQpXJkIrV8-12" edge="1">
          <mxGeometry relative="1" as="geometry" />
        </mxCell>
        <mxCell id="F92IRK9Jc3nQpXJkIrV8-10" value="DetectBall" style="rounded=1;whiteSpace=wrap;html=1;align=left;fontStyle=1" parent="1" vertex="1">
          <mxGeometry x="39" y="440" width="210" height="40" as="geometry" />
        </mxCell>
        <mxCell id="F92IRK9Jc3nQpXJkIrV8-37" style="edgeStyle=orthogonalEdgeStyle;rounded=0;orthogonalLoop=1;jettySize=auto;html=1;exitX=0.5;exitY=1;exitDx=0;exitDy=0;entryX=0.5;entryY=0;entryDx=0;entryDy=0;" parent="1" source="F92IRK9Jc3nQpXJkIrV8-12" target="F92IRK9Jc3nQpXJkIrV8-15" edge="1">
          <mxGeometry relative="1" as="geometry" />
        </mxCell>
        <mxCell id="F92IRK9Jc3nQpXJkIrV8-12" value="&lt;div align=&quot;center&quot;&gt;findMiddleFewBalls() {*at least 4 balls}&lt;br&gt;&lt;/div&gt;" style="rounded=0;whiteSpace=wrap;html=1;align=center;fontStyle=3" parent="1" vertex="1">
          <mxGeometry x="170" y="490" width="240" height="30" as="geometry" />
        </mxCell>
        <mxCell id="F92IRK9Jc3nQpXJkIrV8-38" style="edgeStyle=orthogonalEdgeStyle;rounded=0;orthogonalLoop=1;jettySize=auto;html=1;exitX=0.5;exitY=1;exitDx=0;exitDy=0;entryX=0.5;entryY=0;entryDx=0;entryDy=0;" parent="1" source="F92IRK9Jc3nQpXJkIrV8-15" target="F92IRK9Jc3nQpXJkIrV8-18" edge="1">
          <mxGeometry relative="1" as="geometry" />
        </mxCell>
        <mxCell id="F92IRK9Jc3nQpXJkIrV8-15" value="FindSucceedingMiddlePreceedingBalls()" style="rounded=0;whiteSpace=wrap;html=1;align=left;fontStyle=3" parent="1" vertex="1">
          <mxGeometry x="170" y="530" width="240" height="30" as="geometry" />
        </mxCell>
        <mxCell id="F92IRK9Jc3nQpXJkIrV8-39" style="edgeStyle=orthogonalEdgeStyle;rounded=0;orthogonalLoop=1;jettySize=auto;html=1;exitX=0.5;exitY=1;exitDx=0;exitDy=0;entryX=1;entryY=0.5;entryDx=0;entryDy=0;" parent="1" source="F92IRK9Jc3nQpXJkIrV8-18" target="F92IRK9Jc3nQpXJkIrV8-19" edge="1">
          <mxGeometry relative="1" as="geometry" />
        </mxCell>
        <mxCell id="F92IRK9Jc3nQpXJkIrV8-18" value="FindInitialBall()" style="rounded=0;whiteSpace=wrap;html=1;align=left;fontStyle=3" parent="1" vertex="1">
          <mxGeometry x="170" y="570" width="240" height="30" as="geometry" />
        </mxCell>
        <mxCell id="F92IRK9Jc3nQpXJkIrV8-40" style="edgeStyle=orthogonalEdgeStyle;rounded=0;orthogonalLoop=1;jettySize=auto;html=1;exitX=0.5;exitY=1;exitDx=0;exitDy=0;entryX=0.5;entryY=0;entryDx=0;entryDy=0;entryPerimeter=0;" parent="1" source="F92IRK9Jc3nQpXJkIrV8-19" target="F92IRK9Jc3nQpXJkIrV8-20" edge="1">
          <mxGeometry relative="1" as="geometry" />
        </mxCell>
        <mxCell id="F92IRK9Jc3nQpXJkIrV8-19" value="&lt;div&gt;&lt;b&gt;Get data:&lt;/b&gt;&lt;/div&gt;&lt;div&gt;BallTime {valid balls timestamps}&lt;br&gt;&lt;/div&gt;&lt;div&gt;BallObservations&lt;/div&gt;&lt;div&gt;InitBallParameters&lt;br&gt;&lt;/div&gt;" style="rounded=1;whiteSpace=wrap;html=1;align=left;" parent="1" vertex="1">
          <mxGeometry x="40" y="610" width="200" height="70" as="geometry" />
        </mxCell>
        <mxCell id="F92IRK9Jc3nQpXJkIrV8-29" style="edgeStyle=orthogonalEdgeStyle;rounded=0;orthogonalLoop=1;jettySize=auto;html=1;exitX=0.5;exitY=1;exitDx=0;exitDy=0;exitPerimeter=0;" parent="1" source="F92IRK9Jc3nQpXJkIrV8-20" target="F92IRK9Jc3nQpXJkIrV8-22" edge="1">
          <mxGeometry relative="1" as="geometry" />
        </mxCell>
        <mxCell id="mxctmNxFB624iaF2kWNX-5" style="edgeStyle=orthogonalEdgeStyle;rounded=0;orthogonalLoop=1;jettySize=auto;html=1;exitX=0;exitY=0.5;exitDx=0;exitDy=0;exitPerimeter=0;entryX=0;entryY=0.5;entryDx=0;entryDy=0;entryPerimeter=0;" parent="1" source="F92IRK9Jc3nQpXJkIrV8-20" target="F92IRK9Jc3nQpXJkIrV8-33" edge="1">
          <mxGeometry relative="1" as="geometry" />
        </mxCell>
        <mxCell id="F92IRK9Jc3nQpXJkIrV8-20" value="validBallTime &amp;gt;= 4 &amp;amp; InitialBallRadius &amp;gt; 0" style="strokeWidth=2;html=1;shape=mxgraph.flowchart.decision;whiteSpace=wrap;align=center;" parent="1" vertex="1">
          <mxGeometry x="37" y="703" width="205" height="60" as="geometry" />
        </mxCell>
        <mxCell id="F92IRK9Jc3nQpXJkIrV8-41" style="edgeStyle=orthogonalEdgeStyle;rounded=0;orthogonalLoop=1;jettySize=auto;html=1;exitX=0.5;exitY=1;exitDx=0;exitDy=0;entryX=0.5;entryY=0;entryDx=0;entryDy=0;" parent="1" source="F92IRK9Jc3nQpXJkIrV8-22" target="F92IRK9Jc3nQpXJkIrV8-23" edge="1">
          <mxGeometry relative="1" as="geometry" />
        </mxCell>
        <mxCell id="F92IRK9Jc3nQpXJkIrV8-22" value="Calculate LaunchAngle" style="rounded=1;whiteSpace=wrap;html=1;align=left;fontStyle=1" parent="1" vertex="1">
          <mxGeometry x="35" y="800" width="210" height="40" as="geometry" />
        </mxCell>
        <mxCell id="F92IRK9Jc3nQpXJkIrV8-42" style="edgeStyle=orthogonalEdgeStyle;rounded=0;orthogonalLoop=1;jettySize=auto;html=1;exitX=0.5;exitY=1;exitDx=0;exitDy=0;entryX=0.5;entryY=0;entryDx=0;entryDy=0;" parent="1" source="F92IRK9Jc3nQpXJkIrV8-23" target="F92IRK9Jc3nQpXJkIrV8-24" edge="1">
          <mxGeometry relative="1" as="geometry" />
        </mxCell>
        <mxCell id="F92IRK9Jc3nQpXJkIrV8-23" value="Calculate LaunchDirection" style="rounded=1;whiteSpace=wrap;html=1;align=left;fontStyle=1" parent="1" vertex="1">
          <mxGeometry x="35" y="850" width="210" height="40" as="geometry" />
        </mxCell>
        <mxCell id="F92IRK9Jc3nQpXJkIrV8-43" style="edgeStyle=orthogonalEdgeStyle;rounded=0;orthogonalLoop=1;jettySize=auto;html=1;exitX=0.5;exitY=1;exitDx=0;exitDy=0;entryX=0.5;entryY=0;entryDx=0;entryDy=0;" parent="1" source="F92IRK9Jc3nQpXJkIrV8-24" target="F92IRK9Jc3nQpXJkIrV8-25" edge="1">
          <mxGeometry relative="1" as="geometry" />
        </mxCell>
        <mxCell id="F92IRK9Jc3nQpXJkIrV8-24" value="CalculateBallSpeed" style="rounded=1;whiteSpace=wrap;html=1;align=left;fontStyle=1" parent="1" vertex="1">
          <mxGeometry x="35" y="900" width="210" height="40" as="geometry" />
        </mxCell>
        <mxCell id="F92IRK9Jc3nQpXJkIrV8-44" style="edgeStyle=orthogonalEdgeStyle;rounded=0;orthogonalLoop=1;jettySize=auto;html=1;exitX=0.5;exitY=1;exitDx=0;exitDy=0;entryX=0.5;entryY=0;entryDx=0;entryDy=0;" parent="1" source="F92IRK9Jc3nQpXJkIrV8-25" target="F92IRK9Jc3nQpXJkIrV8-26" edge="1">
          <mxGeometry relative="1" as="geometry" />
        </mxCell>
        <mxCell id="F92IRK9Jc3nQpXJkIrV8-25" value="Obtain RadarBallSpeed" style="rounded=1;whiteSpace=wrap;html=1;align=left;fontStyle=1" parent="1" vertex="1">
          <mxGeometry x="35" y="950" width="210" height="40" as="geometry" />
        </mxCell>
        <mxCell id="F92IRK9Jc3nQpXJkIrV8-45" style="edgeStyle=orthogonalEdgeStyle;rounded=0;orthogonalLoop=1;jettySize=auto;html=1;exitX=0.5;exitY=1;exitDx=0;exitDy=0;entryX=0.5;entryY=0;entryDx=0;entryDy=0;" parent="1" source="F92IRK9Jc3nQpXJkIrV8-26" target="F92IRK9Jc3nQpXJkIrV8-27" edge="1">
          <mxGeometry relative="1" as="geometry" />
        </mxCell>
        <mxCell id="F92IRK9Jc3nQpXJkIrV8-26" value="Perform Numerical Computations" style="shape=process;whiteSpace=wrap;html=1;backgroundOutline=1;align=center;" parent="1" vertex="1">
          <mxGeometry x="40" y="1000" width="200" height="60" as="geometry" />
        </mxCell>
        <mxCell id="F92IRK9Jc3nQpXJkIrV8-34" style="edgeStyle=orthogonalEdgeStyle;rounded=0;orthogonalLoop=1;jettySize=auto;html=1;exitX=0.5;exitY=1;exitDx=0;exitDy=0;entryX=0.5;entryY=0;entryDx=0;entryDy=0;entryPerimeter=0;" parent="1" source="F92IRK9Jc3nQpXJkIrV8-27" target="F92IRK9Jc3nQpXJkIrV8-33" edge="1">
          <mxGeometry relative="1" as="geometry" />
        </mxCell>
        <mxCell id="F92IRK9Jc3nQpXJkIrV8-27" value="Get Carry&amp;amp;Trace" style="rounded=1;whiteSpace=wrap;html=1;align=left;fontStyle=1" parent="1" vertex="1">
          <mxGeometry x="40" y="1080" width="210" height="40" as="geometry" />
        </mxCell>
        <mxCell id="F92IRK9Jc3nQpXJkIrV8-30" style="edgeStyle=orthogonalEdgeStyle;rounded=0;orthogonalLoop=1;jettySize=auto;html=1;exitX=0;exitY=0.5;exitDx=0;exitDy=0;entryX=1;entryY=0.5;entryDx=0;entryDy=0;" parent="1" source="F92IRK9Jc3nQpXJkIrV8-28" target="F92IRK9Jc3nQpXJkIrV8-26" edge="1">
          <mxGeometry relative="1" as="geometry" />
        </mxCell>
        <mxCell id="F92IRK9Jc3nQpXJkIrV8-28" value="&lt;div align=&quot;left&quot;&gt;kMatrix&lt;/div&gt;&lt;div align=&quot;left&quot;&gt;radarBallSpeed&lt;/div&gt;&lt;div align=&quot;left&quot;&gt;ballObservations&lt;/div&gt;&lt;div align=&quot;left&quot;&gt;Radar Accelerometer&lt;/div&gt;&lt;div align=&quot;left&quot;&gt;PhoneAccelerometer&amp;amp;Barometer&lt;/div&gt;&lt;div align=&quot;left&quot;&gt;InitBallParameters&lt;/div&gt;&lt;div align=&quot;left&quot;&gt;BallTime&lt;/div&gt;&lt;div align=&quot;left&quot;&gt;BallInitialConditions (totalSpeed, launchAngle, horizontalAngle, backspin, side spin)&lt;br&gt;&lt;/div&gt;&lt;div align=&quot;left&quot;&gt;InitialBallCoordinates&lt;br&gt;&lt;/div&gt;" style="whiteSpace=wrap;html=1;aspect=fixed;align=left;fontStyle=2" parent="1" vertex="1">
          <mxGeometry x="290" y="885" width="190" height="190" as="geometry" />
        </mxCell>
        <mxCell id="F92IRK9Jc3nQpXJkIrV8-33" value="End" style="strokeWidth=2;html=1;shape=mxgraph.flowchart.start_1;whiteSpace=wrap;" parent="1" vertex="1">
          <mxGeometry x="95" y="1141" width="100" height="40" as="geometry" />
        </mxCell>
        <mxCell id="g0T17iMjt1E9_Oc09vY_-1" value="&lt;div&gt;40 frames &lt;br&gt;&lt;/div&gt;&lt;div&gt;with timestamps&lt;/div&gt;" style="shape=note;whiteSpace=wrap;html=1;backgroundOutline=1;darkOpacity=0.05;" parent="1" vertex="1">
          <mxGeometry x="260" y="330" width="180" height="40" as="geometry" />
        </mxCell>
        <mxCell id="g0T17iMjt1E9_Oc09vY_-2" style="edgeStyle=orthogonalEdgeStyle;rounded=0;orthogonalLoop=1;jettySize=auto;html=1;exitX=0.5;exitY=1;exitDx=0;exitDy=0;exitPerimeter=0;" parent="1" source="g0T17iMjt1E9_Oc09vY_-1" target="g0T17iMjt1E9_Oc09vY_-1" edge="1">
          <mxGeometry relative="1" as="geometry" />
        </mxCell>
        <mxCell id="Z9V7IxoWwoPbSd-97uin-1" style="edgeStyle=orthogonalEdgeStyle;rounded=0;orthogonalLoop=1;jettySize=auto;html=1;exitX=1;exitY=0.5;exitDx=0;exitDy=0;entryX=1;entryY=0.5;entryDx=0;entryDy=0;entryPerimeter=0;" parent="1" source="g0T17iMjt1E9_Oc09vY_-6" target="F92IRK9Jc3nQpXJkIrV8-33" edge="1">
          <mxGeometry relative="1" as="geometry" />
        </mxCell>
        <mxCell id="g0T17iMjt1E9_Oc09vY_-6" value="" style="shape=image;html=1;verticalAlign=top;verticalLabelPosition=bottom;labelBackgroundColor=#ffffff;imageAspect=0;aspect=fixed;image=https://cdn2.iconfinder.com/data/icons/free-mobile-icon-kit/64/Exception.png" parent="1" vertex="1">
          <mxGeometry x="430" y="475" width="60" height="60" as="geometry" />
        </mxCell>
        <mxCell id="Z9V7IxoWwoPbSd-97uin-2" style="edgeStyle=orthogonalEdgeStyle;rounded=0;orthogonalLoop=1;jettySize=auto;html=1;exitX=1;exitY=0.5;exitDx=0;exitDy=0;entryX=1;entryY=0.5;entryDx=0;entryDy=0;entryPerimeter=0;" parent="1" source="g0T17iMjt1E9_Oc09vY_-7" target="F92IRK9Jc3nQpXJkIrV8-33" edge="1">
          <mxGeometry relative="1" as="geometry" />
        </mxCell>
        <mxCell id="g0T17iMjt1E9_Oc09vY_-7" value="" style="shape=image;html=1;verticalAlign=top;verticalLabelPosition=bottom;labelBackgroundColor=#ffffff;imageAspect=0;aspect=fixed;image=https://cdn2.iconfinder.com/data/icons/free-mobile-icon-kit/64/Exception.png" parent="1" vertex="1">
          <mxGeometry x="430" y="550" width="60" height="60" as="geometry" />
        </mxCell>
        <mxCell id="g0T17iMjt1E9_Oc09vY_-9" value="&lt;div&gt;to perform calculation, at least 4 balls + &lt;br&gt;&lt;/div&gt;&lt;div&gt;initial ball are needed&lt;br&gt;&lt;/div&gt;" style="shape=note;whiteSpace=wrap;html=1;backgroundOutline=1;darkOpacity=0.05;" parent="1" vertex="1">
          <mxGeometry x="260" y="703" width="230" height="87" as="geometry" />
        </mxCell>
        <mxCell id="Z9V7IxoWwoPbSd-97uin-4" value="Exit in case of fail" style="text;html=1;strokeColor=none;fillColor=none;align=center;verticalAlign=middle;whiteSpace=wrap;rounded=0;" parent="1" vertex="1">
          <mxGeometry x="512" y="495" width="110" height="20" as="geometry" />
        </mxCell>
        <mxCell id="Z9V7IxoWwoPbSd-97uin-5" value="Exit in case of fail" style="text;html=1;strokeColor=none;fillColor=none;align=center;verticalAlign=middle;whiteSpace=wrap;rounded=0;" parent="1" vertex="1">
          <mxGeometry x="510" y="570" width="110" height="20" as="geometry" />
        </mxCell>
        <mxCell id="Z9V7IxoWwoPbSd-97uin-6" value="OUTDOOR" style="text;html=1;align=center;verticalAlign=middle;resizable=0;points=[];autosize=1;fontStyle=1;fontSize=21;" parent="1" vertex="1">
          <mxGeometry x="490" y="5" width="120" height="30" as="geometry" />
        </mxCell>
        <mxCell id="0euBIBKsiek-CmpyBTXX-3" value="&lt;br&gt;&lt;br&gt;&lt;br&gt;&lt;br&gt;&lt;br&gt;Calculates ball speed" style="rounded=0;whiteSpace=wrap;html=1;fillColor=#ffe6cc;strokeColor=#d79b00;" parent="1" vertex="1">
          <mxGeometry x="120" y="1240" width="120" height="210" as="geometry" />
        </mxCell>
        <mxCell id="0euBIBKsiek-CmpyBTXX-5" value="&lt;br&gt;&lt;br&gt;Fills the image buffer and runs algo to find initial/middle balls&lt;br&gt;&lt;br&gt;&lt;br&gt;&lt;br&gt;&lt;br&gt;&lt;br&gt;&lt;br&gt;&lt;br&gt;Performs shot computation using ball speed" style="rounded=0;whiteSpace=wrap;html=1;fillColor=#f8cecc;strokeColor=#b85450;" parent="1" vertex="1">
          <mxGeometry x="420" y="1240" width="120" height="210" as="geometry" />
        </mxCell>
        <mxCell id="0euBIBKsiek-CmpyBTXX-14" value="Fills the image buffer and runs algo to find initial/middle balls&lt;br&gt;&lt;br&gt;&lt;br&gt;&lt;br&gt;&lt;br&gt;&lt;br&gt;Performs shot computation using ball speed" style="rounded=0;whiteSpace=wrap;html=1;" parent="1" vertex="1">
          <mxGeometry x="400" y="950" width="120" height="210" as="geometry" />
        </mxCell>
        <mxCell id="0euBIBKsiek-CmpyBTXX-7" value="" style="endArrow=classic;html=1;entryX=-0.017;entryY=0.159;entryDx=0;entryDy=0;entryPerimeter=0;exitX=0.008;exitY=0.74;exitDx=0;exitDy=0;exitPerimeter=0;" parent="1" source="0euBIBKsiek-CmpyBTXX-8" target="0euBIBKsiek-CmpyBTXX-5" edge="1">
          <mxGeometry width="50" height="50" relative="1" as="geometry">
            <mxPoint x="243" y="1261" as="sourcePoint" />
            <mxPoint x="450" y="1260" as="targetPoint" />
          </mxGeometry>
        </mxCell>
        <mxCell id="0euBIBKsiek-CmpyBTXX-8" value="Sends trigger to the app (&lt;b&gt;0x90&lt;/b&gt;)" style="text;html=1;align=center;verticalAlign=middle;resizable=0;points=[];autosize=1;" parent="1" vertex="1">
          <mxGeometry x="240" y="1241" width="180" height="20" as="geometry" />
        </mxCell>
        <mxCell id="0euBIBKsiek-CmpyBTXX-9" value="" style="endArrow=classic;html=1;entryX=1.017;entryY=0.605;entryDx=0;entryDy=0;exitX=0;exitY=0.5;exitDx=0;exitDy=0;entryPerimeter=0;" parent="1" source="0euBIBKsiek-CmpyBTXX-5" target="0euBIBKsiek-CmpyBTXX-3" edge="1">
          <mxGeometry width="50" height="50" relative="1" as="geometry">
            <mxPoint x="400" y="1310" as="sourcePoint" />
            <mxPoint x="450" y="1260" as="targetPoint" />
            <Array as="points" />
          </mxGeometry>
        </mxCell>
        <mxCell id="0euBIBKsiek-CmpyBTXX-10" value="Sends ball center sample (&lt;b&gt;0x17&lt;/b&gt;)&lt;br&gt;(500 in case of fail)" style="text;html=1;align=center;verticalAlign=middle;resizable=0;points=[];autosize=1;" parent="1" vertex="1">
          <mxGeometry x="234" y="1315" width="190" height="30" as="geometry" />
        </mxCell>
        <mxCell id="0euBIBKsiek-CmpyBTXX-11" value="" style="endArrow=classic;html=1;entryX=-0.017;entryY=0.902;entryDx=0;entryDy=0;entryPerimeter=0;" parent="1" edge="1" target="0euBIBKsiek-CmpyBTXX-5">
          <mxGeometry width="50" height="50" relative="1" as="geometry">
            <mxPoint x="240" y="1400" as="sourcePoint" />
            <mxPoint x="400" y="1400" as="targetPoint" />
          </mxGeometry>
        </mxCell>
        <mxCell id="0euBIBKsiek-CmpyBTXX-12" value="Sends ball&amp;amp;club speed (&lt;b&gt;0x91&lt;/b&gt;)" style="text;html=1;align=center;verticalAlign=middle;resizable=0;points=[];autosize=1;" parent="1" vertex="1">
          <mxGeometry x="235" y="1382" width="180" height="20" as="geometry" />
        </mxCell>
        <mxCell id="0euBIBKsiek-CmpyBTXX-13" value="MLM" style="text;html=1;align=center;verticalAlign=middle;resizable=0;points=[];autosize=1;fontStyle=1" parent="1" vertex="1">
          <mxGeometry x="150" y="1220" width="40" height="20" as="geometry" />
        </mxCell>
        <mxCell id="0euBIBKsiek-CmpyBTXX-16" value="&lt;b&gt;MOBILE APP&lt;/b&gt;" style="text;html=1;align=center;verticalAlign=middle;resizable=0;points=[];autosize=1;" parent="1" vertex="1">
          <mxGeometry x="435" y="1220" width="90" height="20" as="geometry" />
        </mxCell>
        <mxCell id="ocMIrbZ7oQmUKifu4VhW-21" style="edgeStyle=orthogonalEdgeStyle;rounded=0;orthogonalLoop=1;jettySize=auto;html=1;exitX=0.5;exitY=1;exitDx=0;exitDy=0;entryX=0.5;entryY=0;entryDx=0;entryDy=0;" parent="1" source="ocMIrbZ7oQmUKifu4VhW-1" target="ocMIrbZ7oQmUKifu4VhW-2" edge="1">
          <mxGeometry relative="1" as="geometry" />
        </mxCell>
        <mxCell id="ocMIrbZ7oQmUKifu4VhW-1" value="Perform club head detection" style="shape=process;whiteSpace=wrap;html=1;backgroundOutline=1;fillColor=#f8cecc;strokeColor=#b85450;" parent="1" vertex="1">
          <mxGeometry x="240" y="1560" width="120" height="60" as="geometry" />
        </mxCell>
        <mxCell id="ocMIrbZ7oQmUKifu4VhW-6" style="edgeStyle=orthogonalEdgeStyle;rounded=0;orthogonalLoop=1;jettySize=auto;html=1;exitX=0.5;exitY=1;exitDx=0;exitDy=0;entryX=0.5;entryY=0;entryDx=0;entryDy=0;" parent="1" source="ocMIrbZ7oQmUKifu4VhW-2" target="ocMIrbZ7oQmUKifu4VhW-3" edge="1">
          <mxGeometry relative="1" as="geometry" />
        </mxCell>
        <mxCell id="ocMIrbZ7oQmUKifu4VhW-7" style="edgeStyle=orthogonalEdgeStyle;rounded=0;orthogonalLoop=1;jettySize=auto;html=1;exitX=0;exitY=0.5;exitDx=0;exitDy=0;" parent="1" source="ocMIrbZ7oQmUKifu4VhW-2" edge="1">
          <mxGeometry relative="1" as="geometry">
            <mxPoint x="170" y="1680" as="targetPoint" />
          </mxGeometry>
        </mxCell>
        <mxCell id="ocMIrbZ7oQmUKifu4VhW-2" value="Was club detected?" style="rhombus;whiteSpace=wrap;html=1;fillColor=#ffe6cc;strokeColor=#d79b00;" parent="1" vertex="1">
          <mxGeometry x="240" y="1640" width="120" height="80" as="geometry" />
        </mxCell>
        <mxCell id="ocMIrbZ7oQmUKifu4VhW-8" style="edgeStyle=orthogonalEdgeStyle;rounded=0;orthogonalLoop=1;jettySize=auto;html=1;exitX=0.5;exitY=1;exitDx=0;exitDy=0;entryX=0.5;entryY=0;entryDx=0;entryDy=0;" parent="1" source="ocMIrbZ7oQmUKifu4VhW-3" target="ocMIrbZ7oQmUKifu4VhW-5" edge="1">
          <mxGeometry relative="1" as="geometry" />
        </mxCell>
        <mxCell id="ocMIrbZ7oQmUKifu4VhW-3" value="Perform club number detection" style="shape=process;whiteSpace=wrap;html=1;backgroundOutline=1;fillColor=#f8cecc;strokeColor=#b85450;" parent="1" vertex="1">
          <mxGeometry x="240" y="1740" width="120" height="60" as="geometry" />
        </mxCell>
        <mxCell id="ocMIrbZ7oQmUKifu4VhW-16" style="edgeStyle=orthogonalEdgeStyle;rounded=0;orthogonalLoop=1;jettySize=auto;html=1;exitX=0.5;exitY=1;exitDx=0;exitDy=0;entryX=0.5;entryY=0;entryDx=0;entryDy=0;" parent="1" source="ocMIrbZ7oQmUKifu4VhW-4" target="ocMIrbZ7oQmUKifu4VhW-1" edge="1">
          <mxGeometry relative="1" as="geometry">
            <Array as="points">
              <mxPoint x="300" y="2000" />
              <mxPoint x="170" y="2000" />
              <mxPoint x="170" y="1540" />
              <mxPoint x="300" y="1540" />
            </Array>
          </mxGeometry>
        </mxCell>
        <mxCell id="ocMIrbZ7oQmUKifu4VhW-4" value="Perform majority voting" style="shape=process;whiteSpace=wrap;html=1;backgroundOutline=1;fillColor=#f8cecc;strokeColor=#b85450;" parent="1" vertex="1">
          <mxGeometry x="240" y="1920" width="120" height="60" as="geometry" />
        </mxCell>
        <mxCell id="ocMIrbZ7oQmUKifu4VhW-9" style="edgeStyle=orthogonalEdgeStyle;rounded=0;orthogonalLoop=1;jettySize=auto;html=1;exitX=0.5;exitY=1;exitDx=0;exitDy=0;entryX=0.5;entryY=0;entryDx=0;entryDy=0;" parent="1" source="ocMIrbZ7oQmUKifu4VhW-5" target="ocMIrbZ7oQmUKifu4VhW-4" edge="1">
          <mxGeometry relative="1" as="geometry" />
        </mxCell>
        <mxCell id="ocMIrbZ7oQmUKifu4VhW-5" value="Was number detected?" style="rhombus;whiteSpace=wrap;html=1;fillColor=#ffe6cc;strokeColor=#d79b00;" parent="1" vertex="1">
          <mxGeometry x="240" y="1820" width="120" height="80" as="geometry" />
        </mxCell>
        <mxCell id="ocMIrbZ7oQmUKifu4VhW-10" value="" style="endArrow=classic;html=1;dashed=1;" parent="1" edge="1">
          <mxGeometry width="50" height="50" relative="1" as="geometry">
            <mxPoint x="300" y="1720" as="sourcePoint" />
            <mxPoint x="560" y="1720" as="targetPoint" />
          </mxGeometry>
        </mxCell>
        <mxCell id="ocMIrbZ7oQmUKifu4VhW-11" value="If club is new, send trigger&lt;br&gt;&amp;nbsp;to record debug video" style="text;html=1;align=center;verticalAlign=middle;resizable=0;points=[];autosize=1;" parent="1" vertex="1">
          <mxGeometry x="372" y="1680" width="150" height="30" as="geometry" />
        </mxCell>
        <mxCell id="ocMIrbZ7oQmUKifu4VhW-13" value="" style="endArrow=classic;html=1;exitX=0;exitY=0.5;exitDx=0;exitDy=0;" parent="1" source="ocMIrbZ7oQmUKifu4VhW-5" edge="1">
          <mxGeometry width="50" height="50" relative="1" as="geometry">
            <mxPoint x="400" y="1860" as="sourcePoint" />
            <mxPoint x="170" y="1860" as="targetPoint" />
          </mxGeometry>
        </mxCell>
        <mxCell id="ocMIrbZ7oQmUKifu4VhW-14" value="YES" style="text;html=1;align=center;verticalAlign=middle;resizable=0;points=[];autosize=1;" parent="1" vertex="1">
          <mxGeometry x="260" y="1720" width="40" height="20" as="geometry" />
        </mxCell>
        <mxCell id="ocMIrbZ7oQmUKifu4VhW-15" value="YES" style="text;html=1;align=center;verticalAlign=middle;resizable=0;points=[];autosize=1;" parent="1" vertex="1">
          <mxGeometry x="260" y="1900" width="40" height="20" as="geometry" />
        </mxCell>
        <mxCell id="ocMIrbZ7oQmUKifu4VhW-19" value="" style="endArrow=classic;html=1;dashed=1;" parent="1" edge="1">
          <mxGeometry width="50" height="50" relative="1" as="geometry">
            <mxPoint x="300" y="1990" as="sourcePoint" />
            <mxPoint x="560" y="1990" as="targetPoint" />
          </mxGeometry>
        </mxCell>
        <mxCell id="ocMIrbZ7oQmUKifu4VhW-20" value="If result is determined&amp;amp;different from the &lt;br&gt;current club, send trigger&amp;nbsp;to change club" style="text;html=1;align=center;verticalAlign=middle;resizable=0;points=[];autosize=1;" parent="1" vertex="1">
          <mxGeometry x="372" y="1950" width="230" height="30" as="geometry" />
        </mxCell>
        <mxCell id="ocMIrbZ7oQmUKifu4VhW-22" value="NO" style="text;html=1;align=center;verticalAlign=middle;resizable=0;points=[];autosize=1;" parent="1" vertex="1">
          <mxGeometry x="195" y="1660" width="30" height="20" as="geometry" />
        </mxCell>
        <mxCell id="ocMIrbZ7oQmUKifu4VhW-23" value="NO" style="text;html=1;align=center;verticalAlign=middle;resizable=0;points=[];autosize=1;" parent="1" vertex="1">
          <mxGeometry x="195" y="1840" width="30" height="20" as="geometry" />
        </mxCell>
        <mxCell id="-PogmlPKtZPGe_I0HC47-8" value="&lt;div&gt;&lt;b&gt;Fill data:&amp;nbsp;&lt;/b&gt;&lt;/div&gt;&lt;div&gt;&lt;b&gt;- Motion Sensor Data &lt;/b&gt;{PhoneAccX,&amp;nbsp;PhoneAccY,&amp;nbsp;PhoneAccZ,&amp;nbsp;&amp;nbsp;Barometer}&lt;/div&gt;&lt;div&gt;&lt;b&gt;&lt;span&gt;- DeviceModel&lt;/span&gt;&lt;br&gt;&lt;/b&gt;&lt;/div&gt;&lt;div&gt;&lt;b&gt;- kMatrix &lt;/b&gt;{Calibration data}&lt;/div&gt;" style="rounded=1;whiteSpace=wrap;html=1;align=left;" vertex="1" parent="1">
          <mxGeometry x="800" y="140" width="405" height="60" as="geometry" />
        </mxCell>
        <mxCell id="-PogmlPKtZPGe_I0HC47-10" value="Fill Image Buffer&amp;amp;TimeStamps" style="rounded=1;whiteSpace=wrap;html=1;align=left;fontStyle=1" vertex="1" parent="1">
          <mxGeometry x="800" y="215" width="400" height="40" as="geometry" />
        </mxCell>
        <mxCell id="-PogmlPKtZPGe_I0HC47-13" style="edgeStyle=orthogonalEdgeStyle;rounded=0;orthogonalLoop=1;jettySize=auto;html=1;exitX=1;exitY=0.5;exitDx=0;exitDy=0;entryX=0.5;entryY=0;entryDx=0;entryDy=0;align=center;" edge="1" source="-PogmlPKtZPGe_I0HC47-14" target="-PogmlPKtZPGe_I0HC47-16" parent="1">
          <mxGeometry relative="1" as="geometry" />
        </mxCell>
        <mxCell id="-PogmlPKtZPGe_I0HC47-14" value="DetectBall" style="rounded=1;whiteSpace=wrap;html=1;align=center;fontStyle=1" vertex="1" parent="1">
          <mxGeometry x="904.5" y="420" width="210" height="40" as="geometry" />
        </mxCell>
        <mxCell id="-PogmlPKtZPGe_I0HC47-15" style="edgeStyle=orthogonalEdgeStyle;rounded=0;orthogonalLoop=1;jettySize=auto;html=1;exitX=0.5;exitY=1;exitDx=0;exitDy=0;entryX=0.5;entryY=0;entryDx=0;entryDy=0;align=center;" edge="1" source="-PogmlPKtZPGe_I0HC47-16" target="-PogmlPKtZPGe_I0HC47-18" parent="1">
          <mxGeometry relative="1" as="geometry" />
        </mxCell>
        <mxCell id="-PogmlPKtZPGe_I0HC47-16" value="&lt;div&gt;findMiddleFewBalls() &lt;span style=&quot;font-weight: normal&quot;&gt;{*at least 4 balls}&lt;/span&gt;&lt;br&gt;&lt;/div&gt;" style="rounded=0;whiteSpace=wrap;html=1;align=center;fontStyle=3" vertex="1" parent="1">
          <mxGeometry x="1035.5" y="470" width="240" height="30" as="geometry" />
        </mxCell>
        <mxCell id="-PogmlPKtZPGe_I0HC47-17" style="edgeStyle=orthogonalEdgeStyle;rounded=0;orthogonalLoop=1;jettySize=auto;html=1;exitX=0.5;exitY=1;exitDx=0;exitDy=0;entryX=0.5;entryY=0;entryDx=0;entryDy=0;align=center;" edge="1" source="-PogmlPKtZPGe_I0HC47-18" target="-PogmlPKtZPGe_I0HC47-20" parent="1">
          <mxGeometry relative="1" as="geometry" />
        </mxCell>
        <mxCell id="-PogmlPKtZPGe_I0HC47-18" value="FindSucceedingMiddlePreceedingBalls()" style="rounded=0;whiteSpace=wrap;html=1;align=center;fontStyle=3" vertex="1" parent="1">
          <mxGeometry x="1035.5" y="510" width="240" height="30" as="geometry" />
        </mxCell>
        <mxCell id="-PogmlPKtZPGe_I0HC47-19" style="edgeStyle=orthogonalEdgeStyle;rounded=0;orthogonalLoop=1;jettySize=auto;html=1;exitX=0.5;exitY=1;exitDx=0;exitDy=0;entryX=1;entryY=0.5;entryDx=0;entryDy=0;" edge="1" source="-PogmlPKtZPGe_I0HC47-20" target="-PogmlPKtZPGe_I0HC47-22" parent="1">
          <mxGeometry relative="1" as="geometry" />
        </mxCell>
        <mxCell id="-PogmlPKtZPGe_I0HC47-20" value="FindInitialBall() &lt;span style=&quot;font-weight: normal&quot;&gt;{in case of no ball from DL}&lt;/span&gt;" style="rounded=0;whiteSpace=wrap;html=1;align=center;fontStyle=3" vertex="1" parent="1">
          <mxGeometry x="1035.5" y="550" width="240" height="30" as="geometry" />
        </mxCell>
        <mxCell id="-PogmlPKtZPGe_I0HC47-22" value="&lt;div&gt;&lt;b&gt;Output data:&lt;/b&gt;&lt;/div&gt;&lt;div&gt;BallTime {valid balls timestamps}&lt;br&gt;&lt;/div&gt;&lt;div&gt;BallObservations {valid balls}&lt;/div&gt;&lt;div&gt;InitBallParameters&lt;br&gt;&lt;/div&gt;" style="rounded=1;whiteSpace=wrap;html=1;align=left;" vertex="1" parent="1">
          <mxGeometry x="914.5" y="590" width="200" height="70" as="geometry" />
        </mxCell>
        <mxCell id="-PogmlPKtZPGe_I0HC47-23" style="edgeStyle=orthogonalEdgeStyle;rounded=0;orthogonalLoop=1;jettySize=auto;html=1;exitX=0.5;exitY=1;exitDx=0;exitDy=0;exitPerimeter=0;" edge="1" source="-PogmlPKtZPGe_I0HC47-25" target="-PogmlPKtZPGe_I0HC47-27" parent="1">
          <mxGeometry relative="1" as="geometry" />
        </mxCell>
        <mxCell id="-PogmlPKtZPGe_I0HC47-24" style="edgeStyle=orthogonalEdgeStyle;rounded=0;orthogonalLoop=1;jettySize=auto;html=1;exitX=0;exitY=0.5;exitDx=0;exitDy=0;exitPerimeter=0;entryX=0;entryY=0.5;entryDx=0;entryDy=0;entryPerimeter=0;" edge="1" source="-PogmlPKtZPGe_I0HC47-25" target="-PogmlPKtZPGe_I0HC47-40" parent="1">
          <mxGeometry relative="1" as="geometry" />
        </mxCell>
        <mxCell id="-PogmlPKtZPGe_I0HC47-25" value="validBallTime &amp;gt;= 4 &amp;amp; InitialBallRadius &amp;gt; 0" style="strokeWidth=2;html=1;shape=mxgraph.flowchart.decision;whiteSpace=wrap;align=center;" vertex="1" parent="1">
          <mxGeometry x="790" y="960" width="205" height="60" as="geometry" />
        </mxCell>
        <mxCell id="-PogmlPKtZPGe_I0HC47-26" style="edgeStyle=orthogonalEdgeStyle;rounded=0;orthogonalLoop=1;jettySize=auto;html=1;exitX=0.5;exitY=1;exitDx=0;exitDy=0;entryX=0.5;entryY=0;entryDx=0;entryDy=0;" edge="1" source="-PogmlPKtZPGe_I0HC47-27" target="-PogmlPKtZPGe_I0HC47-29" parent="1">
          <mxGeometry relative="1" as="geometry" />
        </mxCell>
        <mxCell id="-PogmlPKtZPGe_I0HC47-27" value="Calculate LaunchAngle" style="rounded=1;whiteSpace=wrap;html=1;align=left;fontStyle=1" vertex="1" parent="1">
          <mxGeometry x="788" y="1057" width="210" height="40" as="geometry" />
        </mxCell>
        <mxCell id="-PogmlPKtZPGe_I0HC47-28" style="edgeStyle=orthogonalEdgeStyle;rounded=0;orthogonalLoop=1;jettySize=auto;html=1;exitX=0.5;exitY=1;exitDx=0;exitDy=0;entryX=0.5;entryY=0;entryDx=0;entryDy=0;" edge="1" source="-PogmlPKtZPGe_I0HC47-29" target="-PogmlPKtZPGe_I0HC47-31" parent="1">
          <mxGeometry relative="1" as="geometry" />
        </mxCell>
        <mxCell id="-PogmlPKtZPGe_I0HC47-29" value="Calculate LaunchDirection" style="rounded=1;whiteSpace=wrap;html=1;align=left;fontStyle=1" vertex="1" parent="1">
          <mxGeometry x="788" y="1107" width="210" height="40" as="geometry" />
        </mxCell>
        <mxCell id="-PogmlPKtZPGe_I0HC47-30" style="edgeStyle=orthogonalEdgeStyle;rounded=0;orthogonalLoop=1;jettySize=auto;html=1;exitX=0.5;exitY=1;exitDx=0;exitDy=0;entryX=0.5;entryY=0;entryDx=0;entryDy=0;" edge="1" source="-PogmlPKtZPGe_I0HC47-31" target="-PogmlPKtZPGe_I0HC47-33" parent="1">
          <mxGeometry relative="1" as="geometry" />
        </mxCell>
        <mxCell id="-PogmlPKtZPGe_I0HC47-31" value="CalculateBallSpeed" style="rounded=1;whiteSpace=wrap;html=1;align=left;fontStyle=1" vertex="1" parent="1">
          <mxGeometry x="788" y="1157" width="210" height="40" as="geometry" />
        </mxCell>
        <mxCell id="-PogmlPKtZPGe_I0HC47-32" style="edgeStyle=orthogonalEdgeStyle;rounded=0;orthogonalLoop=1;jettySize=auto;html=1;exitX=0.5;exitY=1;exitDx=0;exitDy=0;entryX=0.5;entryY=0;entryDx=0;entryDy=0;" edge="1" source="-PogmlPKtZPGe_I0HC47-33" target="-PogmlPKtZPGe_I0HC47-35" parent="1">
          <mxGeometry relative="1" as="geometry" />
        </mxCell>
        <mxCell id="-PogmlPKtZPGe_I0HC47-33" value="Obtain RadarBallSpeed" style="rounded=1;whiteSpace=wrap;html=1;align=left;fontStyle=1" vertex="1" parent="1">
          <mxGeometry x="788" y="1207" width="210" height="40" as="geometry" />
        </mxCell>
        <mxCell id="-PogmlPKtZPGe_I0HC47-34" style="edgeStyle=orthogonalEdgeStyle;rounded=0;orthogonalLoop=1;jettySize=auto;html=1;exitX=0.5;exitY=1;exitDx=0;exitDy=0;entryX=0.5;entryY=0;entryDx=0;entryDy=0;" edge="1" source="-PogmlPKtZPGe_I0HC47-35" target="-PogmlPKtZPGe_I0HC47-37" parent="1">
          <mxGeometry relative="1" as="geometry" />
        </mxCell>
        <mxCell id="-PogmlPKtZPGe_I0HC47-35" value="Perform Numerical Computations" style="shape=process;whiteSpace=wrap;html=1;backgroundOutline=1;align=center;" vertex="1" parent="1">
          <mxGeometry x="793" y="1257" width="200" height="60" as="geometry" />
        </mxCell>
        <mxCell id="-PogmlPKtZPGe_I0HC47-36" style="edgeStyle=orthogonalEdgeStyle;rounded=0;orthogonalLoop=1;jettySize=auto;html=1;exitX=0.5;exitY=1;exitDx=0;exitDy=0;entryX=0.5;entryY=0;entryDx=0;entryDy=0;entryPerimeter=0;" edge="1" source="-PogmlPKtZPGe_I0HC47-37" target="-PogmlPKtZPGe_I0HC47-40" parent="1">
          <mxGeometry relative="1" as="geometry" />
        </mxCell>
        <mxCell id="-PogmlPKtZPGe_I0HC47-37" value="Get Carry&amp;amp;Trace" style="rounded=1;whiteSpace=wrap;html=1;align=left;fontStyle=1" vertex="1" parent="1">
          <mxGeometry x="793" y="1337" width="210" height="40" as="geometry" />
        </mxCell>
        <mxCell id="-PogmlPKtZPGe_I0HC47-38" style="edgeStyle=orthogonalEdgeStyle;rounded=0;orthogonalLoop=1;jettySize=auto;html=1;exitX=0;exitY=0.5;exitDx=0;exitDy=0;entryX=1;entryY=0.5;entryDx=0;entryDy=0;" edge="1" source="-PogmlPKtZPGe_I0HC47-39" target="-PogmlPKtZPGe_I0HC47-35" parent="1">
          <mxGeometry relative="1" as="geometry" />
        </mxCell>
        <mxCell id="-PogmlPKtZPGe_I0HC47-39" value="&lt;div align=&quot;left&quot;&gt;kMatrix&lt;/div&gt;&lt;div align=&quot;left&quot;&gt;radarBallSpeed&lt;/div&gt;&lt;div align=&quot;left&quot;&gt;ballObservations&lt;/div&gt;&lt;div align=&quot;left&quot;&gt;Radar Accelerometer&lt;/div&gt;&lt;div align=&quot;left&quot;&gt;PhoneAccelerometer&amp;amp;Barometer&lt;/div&gt;&lt;div align=&quot;left&quot;&gt;InitBallParameters&lt;/div&gt;&lt;div align=&quot;left&quot;&gt;BallTime&lt;/div&gt;&lt;div align=&quot;left&quot;&gt;BallInitialConditions (totalSpeed, launchAngle, horizontalAngle, backspin, side spin)&lt;br&gt;&lt;/div&gt;&lt;div align=&quot;left&quot;&gt;InitialBallCoordinates&lt;br&gt;&lt;/div&gt;" style="whiteSpace=wrap;html=1;aspect=fixed;align=left;fontStyle=2" vertex="1" parent="1">
          <mxGeometry x="1043" y="1142" width="190" height="190" as="geometry" />
        </mxCell>
        <mxCell id="-PogmlPKtZPGe_I0HC47-40" value="End" style="strokeWidth=2;html=1;shape=mxgraph.flowchart.start_1;whiteSpace=wrap;" vertex="1" parent="1">
          <mxGeometry x="848" y="1398" width="100" height="40" as="geometry" />
        </mxCell>
        <mxCell id="-PogmlPKtZPGe_I0HC47-41" value="&lt;div&gt;40 frames &lt;br&gt;&lt;/div&gt;&lt;div&gt;with timestamps&lt;/div&gt;" style="shape=note;whiteSpace=wrap;html=1;backgroundOutline=1;darkOpacity=0.05;" vertex="1" parent="1">
          <mxGeometry x="1220" y="215" width="180" height="40" as="geometry" />
        </mxCell>
        <mxCell id="-PogmlPKtZPGe_I0HC47-42" style="edgeStyle=orthogonalEdgeStyle;rounded=0;orthogonalLoop=1;jettySize=auto;html=1;exitX=0.5;exitY=1;exitDx=0;exitDy=0;exitPerimeter=0;" edge="1" source="-PogmlPKtZPGe_I0HC47-41" target="-PogmlPKtZPGe_I0HC47-41" parent="1">
          <mxGeometry relative="1" as="geometry" />
        </mxCell>
        <mxCell id="-PogmlPKtZPGe_I0HC47-43" style="edgeStyle=orthogonalEdgeStyle;rounded=0;orthogonalLoop=1;jettySize=auto;html=1;exitX=1;exitY=0.5;exitDx=0;exitDy=0;entryX=1;entryY=0.5;entryDx=0;entryDy=0;entryPerimeter=0;" edge="1" source="-PogmlPKtZPGe_I0HC47-44" target="-PogmlPKtZPGe_I0HC47-40" parent="1">
          <mxGeometry relative="1" as="geometry" />
        </mxCell>
        <mxCell id="-PogmlPKtZPGe_I0HC47-44" value="" style="shape=image;html=1;verticalAlign=top;verticalLabelPosition=bottom;labelBackgroundColor=#ffffff;imageAspect=0;aspect=fixed;image=https://cdn2.iconfinder.com/data/icons/free-mobile-icon-kit/64/Exception.png;align=center;" vertex="1" parent="1">
          <mxGeometry x="1295.5" y="455" width="60" height="60" as="geometry" />
        </mxCell>
        <mxCell id="-PogmlPKtZPGe_I0HC47-45" style="edgeStyle=orthogonalEdgeStyle;rounded=0;orthogonalLoop=1;jettySize=auto;html=1;exitX=1;exitY=0.5;exitDx=0;exitDy=0;entryX=1;entryY=0.5;entryDx=0;entryDy=0;entryPerimeter=0;" edge="1" source="-PogmlPKtZPGe_I0HC47-46" target="-PogmlPKtZPGe_I0HC47-40" parent="1">
          <mxGeometry relative="1" as="geometry" />
        </mxCell>
        <mxCell id="-PogmlPKtZPGe_I0HC47-46" value="" style="shape=image;html=1;verticalAlign=top;verticalLabelPosition=bottom;labelBackgroundColor=#ffffff;imageAspect=0;aspect=fixed;image=https://cdn2.iconfinder.com/data/icons/free-mobile-icon-kit/64/Exception.png" vertex="1" parent="1">
          <mxGeometry x="1282" y="710" width="60" height="60" as="geometry" />
        </mxCell>
        <mxCell id="-PogmlPKtZPGe_I0HC47-47" value="&lt;div&gt;to perform calculation, at least 4 balls + &lt;br&gt;&lt;/div&gt;&lt;div&gt;initial ball are needed&lt;br&gt;&lt;/div&gt;" style="shape=note;whiteSpace=wrap;html=1;backgroundOutline=1;darkOpacity=0.05;" vertex="1" parent="1">
          <mxGeometry x="1013" y="960" width="230" height="87" as="geometry" />
        </mxCell>
        <mxCell id="-PogmlPKtZPGe_I0HC47-52" value="FindInialBall (DL)&amp;nbsp;" style="rounded=1;whiteSpace=wrap;html=1;fontStyle=1" vertex="1" parent="1">
          <mxGeometry x="800" y="360" width="400" height="30" as="geometry" />
        </mxCell>
        <mxCell id="-PogmlPKtZPGe_I0HC47-54" value="&lt;b&gt;isPerformInitBallFinding&lt;/b&gt;&lt;br&gt;(just supported devices)" style="rhombus;whiteSpace=wrap;html=1;" vertex="1" parent="1">
          <mxGeometry x="902.5" y="260" width="200" height="80" as="geometry" />
        </mxCell>
        <mxCell id="-PogmlPKtZPGe_I0HC47-55" value="Data provided by &lt;br&gt;Mobil Side" style="shape=note;whiteSpace=wrap;html=1;backgroundOutline=1;darkOpacity=0.05;" vertex="1" parent="1">
          <mxGeometry x="1222" y="140" width="180" height="40" as="geometry" />
        </mxCell>
        <mxCell id="-PogmlPKtZPGe_I0HC47-56" value="Waiting for the Ball Speed&lt;br&gt;(from MLM)" style="ellipse;shape=cloud;whiteSpace=wrap;html=1;align=center;fontStyle=1" vertex="1" parent="1">
          <mxGeometry x="864" y="670" width="277" height="100" as="geometry" />
        </mxCell>
        <mxCell id="-PogmlPKtZPGe_I0HC47-57" value="Waiting for Trigger From MLM" style="ellipse;shape=cloud;whiteSpace=wrap;html=1;align=center;fontStyle=1" vertex="1" parent="1">
          <mxGeometry x="868" y="10" width="277" height="100" as="geometry" />
        </mxCell>
        <mxCell id="-PogmlPKtZPGe_I0HC47-58" value="InputRadarData &lt;span style=&quot;font-weight: normal&quot;&gt;&lt;i&gt;{ballSpeed, clubSpeed}&lt;/i&gt;&lt;/span&gt;" style="rounded=1;whiteSpace=wrap;html=1;align=center;fontStyle=1" vertex="1" parent="1">
          <mxGeometry x="809.5" y="790" width="400" height="30" as="geometry" />
        </mxCell>
      </root>
    </mxGraphModel>
  </diagram>
</mxfile>
